<svg width="81" height="17" viewBox="0 0 81 17" fill="none" xmlns="http://www.w3.org/2000/svg">
<path d="M23.8319 14.0012L17.1983 18.6271C11.2049 24.0448 15.0375 34 23.1167 34H58.2672C66.3132 34 70.2511 24.1905 64.4384 18.6271L58.5881 14.0942C56.835 12.7358 55.3514 11.0616 54.2138 9.15771L53.5242 8.0036C52.0218 5.48928 49.7533 3.52261 47.0513 2.3921C43.668 0.97653 39.8584 0.97653 36.4751 2.3921L36.1311 2.53601C33.6363 3.57984 31.4806 5.29646 29.9048 7.49427L28.6457 9.25028C27.3224 11.0957 25.6946 12.7024 23.8319 14.0012Z" fill="#A6F22C" stroke="#A6F22C"/>
<path d="M41.7908 5.01111V14" stroke="white"/>
<path d="M37.2964 9.50562H46.2853" stroke="white"/>
</svg>
