<svg width="206" height="127" viewBox="0 0 206 127" fill="none" xmlns="http://www.w3.org/2000/svg">
<path d="M181.393 25.5129C176.514 20.6353 170.19 17.4649 163.363 16.4745L74.6143 3.59983C61.7013 1.72655 48.9442 7.88117 42.3735 19.1543L18.529 60.064C8.95649 76.4874 15.7275 97.5854 33.0695 105.371L74.9939 124.193C79.1154 126.043 83.5821 127 88.1 127H152.345C165.364 127 177.085 119.112 181.988 107.052L197.389 69.1695C202.235 57.2492 199.47 43.5857 190.37 34.4879L181.393 25.5129Z" fill="#A6F22C"/>
<g clip-path="url(#clip0_118_31)">
<path d="M103 106H82V81.5C70.45 81.5 61 72.05 61 60.5C61 48.95 70.45 39.5 82 39.5H99.5C112.1 39.5 125.05 27.6 125.05 27.6L131 22V46.5C138.7 46.5 145 52.8 145 60.5C145 68.2 138.7 74.5 131 74.5V98.3L125.05 93.05C125.05 93.05 114.2 83.25 103 81.5V106ZM89 99H96V81.5H89V99ZM103 74.85C111.4 75.9 119.1 80.1 124 83.6V37.4C119.1 40.9 111.4 45.45 103 46.5V74.85ZM82 74.5H96V46.5H82C74.3 46.5 68 52.8 68 60.5C68 68.2 74.3 74.5 82 74.5ZM131 60.5V67.5C134.85 67.5 138 64.35 138 60.5C138 56.65 134.85 53.5 131 53.5V60.5Z" fill="white" stroke="white" stroke-width="0.00150588"/>
</g>
<defs>
<clipPath id="clip0_118_31">
<rect width="84" height="84" fill="white" transform="translate(61 22)"/>
</clipPath>
</defs>
</svg>
