<svg width="180" height="158" viewBox="0 0 180 158" fill="none" xmlns="http://www.w3.org/2000/svg">
<path d="M130.535 3.39237C121.604 1.66287 112.358 3.81644 105.111 9.31463L61.5464 42.3635C59.5227 43.8988 57.3233 45.1876 54.9949 46.2027L37.8228 53.6895C18.8168 61.9758 12.5884 85.8723 25.1317 102.382L57.7843 145.359C63.8353 153.323 73.2621 158 83.2643 158H125.213C135.165 158 144.551 153.369 150.607 145.472L172.894 116.406C177.178 110.819 179.5 103.975 179.5 96.9341V39.2721C179.5 23.9447 168.632 10.7697 153.584 7.85571L130.535 3.39237Z" fill="#A6F22C"/>
<path d="M94 81.5H122" stroke="white" stroke-width="5" stroke-linecap="round"/>
<path d="M94 93.75H113.25" stroke="white" stroke-width="5" stroke-linecap="round"/>
<path d="M70.375 86.75C70.375 88.1997 71.5503 89.375 73 89.375C74.4497 89.375 75.625 88.1997 75.625 86.75H70.375ZM76.7573 104.692C76.2025 103.353 74.6669 102.717 73.3276 103.272C71.9882 103.826 71.3521 105.362 71.9069 106.701L76.7573 104.692ZM114.062 126.194L115.96 122.989L111.442 120.314L109.544 123.52L114.062 126.194ZM100.04 122.989L101.938 126.194L106.455 123.52L104.558 120.314L100.04 122.989ZM109.544 123.52C108.87 124.66 107.13 124.66 106.455 123.52L101.938 126.194C104.645 130.768 111.355 130.768 114.062 126.194L109.544 123.52ZM102.75 59.625H113.25V54.375H102.75V59.625ZM140.375 86.75V90.25H145.625V86.75H140.375ZM93.3087 113.846C88.9147 113.77 86.6123 113.49 84.8076 112.743L82.7985 117.593C85.6159 118.76 88.8248 119.019 93.2183 119.095L93.3087 113.846ZM71.9069 106.701C73.9495 111.633 77.8673 115.55 82.7985 117.593L84.8076 112.743C81.1628 111.233 78.267 108.337 76.7573 104.692L71.9069 106.701ZM140.375 90.25C140.375 94.3628 140.374 97.3161 140.215 99.6464C140.057 101.953 139.754 103.458 139.243 104.692L144.093 106.701C144.914 104.72 145.277 102.578 145.452 100.004C145.626 97.4533 145.625 94.2911 145.625 90.25H140.375ZM122.782 119.095C127.175 119.019 130.384 118.76 133.201 117.593L131.192 112.743C129.388 113.49 127.085 113.77 122.691 113.846L122.782 119.095ZM139.243 104.692C137.733 108.337 134.837 111.233 131.192 112.743L133.201 117.593C138.133 115.55 142.05 111.633 144.093 106.701L139.243 104.692ZM113.25 59.625C119.029 59.625 123.179 59.6278 126.417 59.9356C129.615 60.2396 131.65 60.8228 133.272 61.817L136.015 57.3406C133.429 55.756 130.496 55.0498 126.914 54.7091C123.37 54.3722 118.928 54.375 113.25 54.375V59.625ZM145.625 86.75C145.625 81.0723 145.628 76.6297 145.291 73.0864C144.95 69.504 144.244 66.5706 142.659 63.9847L138.183 66.7278C139.177 68.3502 139.76 70.3852 140.065 73.5833C140.372 76.8205 140.375 80.9707 140.375 86.75H145.625ZM133.272 61.817C135.274 63.0435 136.957 64.7263 138.183 66.7278L142.659 63.9847C141 61.2768 138.723 59 136.015 57.3406L133.272 61.817ZM102.75 54.375C97.0723 54.375 92.6297 54.3722 89.0864 54.7091C85.504 55.0498 82.5706 55.756 79.9847 57.3406L82.7278 61.817C84.3502 60.8228 86.3852 60.2396 89.5833 59.9356C92.8205 59.6278 96.9707 59.625 102.75 59.625V54.375ZM75.625 86.75C75.625 80.9707 75.6278 76.8205 75.9356 73.5833C76.2396 70.3852 76.8228 68.3502 77.817 66.7278L73.3406 63.9847C71.756 66.5706 71.0498 69.504 70.7091 73.0864C70.3722 76.6297 70.375 81.0723 70.375 86.75H75.625ZM79.9847 57.3406C77.2768 59 75 61.2768 73.3406 63.9847L77.817 66.7278C79.0435 64.7263 80.7263 63.0435 82.7278 61.817L79.9847 57.3406ZM104.558 120.314C103.848 119.114 103.224 118.054 102.617 117.222C101.978 116.346 101.246 115.556 100.23 114.965L97.59 119.504C97.756 119.6 97.982 119.776 98.3745 120.314C98.7993 120.897 99.2792 121.703 100.04 122.989L104.558 120.314ZM93.2183 119.095C94.7551 119.121 95.7285 119.141 96.4706 119.223C97.164 119.3 97.4327 119.412 97.59 119.504L100.23 114.965C99.2048 114.369 98.1386 114.125 97.0484 114.004C96.0069 113.889 94.7481 113.87 93.3087 113.846L93.2183 119.095ZM115.96 122.989C116.721 121.703 117.2 120.897 117.625 120.314C118.018 119.776 118.244 119.6 118.41 119.504L115.77 114.965C114.754 115.556 114.021 116.346 113.383 117.222C112.776 118.054 112.152 119.114 111.442 120.314L115.96 122.989ZM122.691 113.846C121.252 113.87 119.993 113.889 118.951 114.004C117.861 114.125 116.795 114.369 115.77 114.965L118.41 119.504C118.567 119.412 118.836 119.3 119.529 119.223C120.271 119.141 121.245 119.121 122.782 119.095L122.691 113.846Z" fill="white"/>
</svg>
