<svg width="180" height="174" viewBox="0 0 180 174" fill="none" xmlns="http://www.w3.org/2000/svg">
<path d="M128.947 45.4236C118.557 48.8248 107.15 46.6866 98.6976 39.7535L79.8704 24.311C64.7141 11.8795 42.0443 15.8734 32.049 32.7362L11.4816 67.4349C4.84236 78.6358 5.65198 92.7427 13.5291 103.11L52.0177 153.769C61.0188 165.616 76.998 169.696 90.5772 163.615L160.579 132.264C172.091 127.109 179.5 115.672 179.5 103.059V73.0211C179.5 51.2516 158.233 35.8363 137.544 42.6092L128.947 45.4236Z" fill="#A6F22C"/>
<path d="M90 112.5C106.158 112.5 119.25 99.4078 119.25 83.25C119.25 67.0922 106.158 54 90 54C73.8422 54 60.75 67.0922 60.75 83.25C60.75 99.4078 73.8422 112.5 90 112.5ZM86.8781 67.6969V65.3344C86.8781 64.0406 87.9187 63 89.2125 63H90.7734C92.0672 63 93.1078 64.0406 93.1078 65.3344V67.725C95.2875 67.8375 97.3969 68.5828 99.1547 69.8906C99.9422 70.4672 100.027 71.6203 99.3234 72.2953L97.0312 74.475C96.4969 74.9953 95.6953 75.0094 95.0625 74.6156C94.3031 74.1375 93.4594 73.8984 92.5594 73.8984H87.0891C85.8234 73.8984 84.7969 75.0516 84.7969 76.4719C84.7969 77.625 85.5 78.6516 86.4984 78.9469L95.2594 81.5766C98.8734 82.6594 101.405 86.1328 101.405 90.0281C101.405 94.8094 97.6922 98.6766 93.0938 98.8031V101.166C93.0938 102.459 92.0531 103.5 90.7594 103.5H89.1984C87.9047 103.5 86.8641 102.459 86.8641 101.166V98.775C84.6844 98.6625 82.575 97.9172 80.8172 96.6094C80.0297 96.0328 79.9453 94.8797 80.6484 94.2047L82.9406 92.025C83.475 91.5047 84.2766 91.4906 84.9094 91.8844C85.6688 92.3625 86.5125 92.6016 87.4125 92.6016H92.8828C94.1484 92.6016 95.175 91.4484 95.175 90.0281C95.175 88.875 94.4719 87.8484 93.4734 87.5531L84.7125 84.9234C81.0984 83.8406 78.5672 80.3672 78.5672 76.4719C78.5812 71.6906 82.2797 67.8234 86.8781 67.6969ZM121.5 103.5H116.93C114.173 107.156 110.658 110.208 106.664 112.5H115.636C116.381 112.5 116.986 113.006 116.986 113.625V115.875C116.986 116.494 116.381 117 115.636 117H64.35C63.6047 117 63 116.494 63 115.875V113.625C63 113.006 63.6047 112.5 64.35 112.5H73.3219C69.3281 110.208 65.8266 107.156 63.0563 103.5H58.5C56.0109 103.5 54 105.511 54 108V121.5C54 123.989 56.0109 126 58.5 126H121.5C123.989 126 126 123.989 126 121.5V108C126 105.511 123.989 103.5 121.5 103.5Z" fill="white"/>
</svg>
