<svg width="180" height="174" viewBox="0 0 180 174" fill="none" xmlns="http://www.w3.org/2000/svg">
<path d="M128.947 45.4236C118.557 48.8248 107.15 46.6866 98.6976 39.7535L79.8704 24.311C64.7141 11.8795 42.0443 15.8734 32.049 32.7362L11.4816 67.4349C4.84236 78.6358 5.65198 92.7427 13.5291 103.11L52.0177 153.769C61.0188 165.616 76.998 169.696 90.5772 163.615L160.579 132.264C172.091 127.109 179.5 115.672 179.5 103.059V73.0211C179.5 51.2516 158.233 35.8363 137.544 42.6092L128.947 45.4236Z" fill="#A6F22C"/>
<g clip-path="url(#clip0_115_25)">
<path d="M105.855 98.71L102.145 95L85.065 112.08L77.645 104.66L73.935 108.37L85.065 119.5L105.855 98.71ZM114.5 70.5H111V63.5H104V70.5H76V63.5H69V70.5H65.5C61.615 70.5 58.535 73.65 58.535 77.5L58.5 126.5C58.5 130.35 61.615 133.5 65.5 133.5H114.5C118.35 133.5 121.5 130.35 121.5 126.5V77.5C121.5 73.65 118.35 70.5 114.5 70.5ZM114.5 126.5H65.5V88H114.5V126.5Z" fill="white"/>
</g>
<defs>
<clipPath id="clip0_115_25">
<rect width="84" height="84" fill="white" transform="translate(48 60)"/>
</clipPath>
</defs>
</svg>
