<svg width="180" height="182" viewBox="0 0 180 182" fill="none" xmlns="http://www.w3.org/2000/svg">
<path d="M106.604 10.3997C90.9908 4.72913 73.6346 11.9482 66.6482 27.0188L48.5805 65.9934C45.6346 72.3483 40.4114 77.3664 33.9437 80.0557C17.0283 87.0891 11.329 108.215 22.4116 122.802L52.0177 161.769C61.0188 173.616 76.998 177.696 90.5772 171.615L160.579 140.264C172.091 135.109 179.5 123.672 179.5 111.059V59.2975C179.5 45.8366 171.076 33.8148 158.424 29.2197L106.604 10.3997Z" fill="#A6F22C"/>
<path fill-rule="evenodd" clip-rule="evenodd" d="M67.675 64V126.263H86.832V148L114.011 126.263H144.303V64H67.675ZM72.4643 68.789H139.514V121.469H112.335L91.6212 138.039V121.469H72.4643V68.789Z" fill="white"/>
</svg>
