<svg width="910" height="1024" viewBox="0 0 910 1024" fill="none" xmlns="http://www.w3.org/2000/svg">
<g clip-path="url(#clip0_33_4)">
<path d="M0 25C0 11.1929 11.1929 0 25 0H910V1024H25C11.1929 1024 0 1012.81 0 999V25Z" fill="#A6F22C"/>
<path fill-rule="evenodd" clip-rule="evenodd" d="M61.9895 -23.6217C149.419 -34.3079 248.699 -55.645 311.362 6.25383C379.366 73.4294 380.185 179.801 363.139 273.857C344.86 374.718 310.61 485.241 216.989 526.981C125.196 567.904 24.6798 513.629 -62.4953 463.617C-139.746 419.299 -215.711 359.559 -228.48 271.42C-240.444 188.844 -179.637 118.57 -121.1 59.1124C-71.6676 8.90187 -7.95051 -15.0731 61.9895 -23.6217Z" fill="#6FAD0B" fill-opacity="0.3"/>
<path fill-rule="evenodd" clip-rule="evenodd" d="M644.148 596.01C751.605 595.348 873.027 628.739 922.485 724.14C967.444 810.865 891.016 904.432 850.001 993.09C823.313 1050.78 789.401 1101.45 733.737 1132.14C673.081 1165.58 603.777 1188.93 538.918 1164.62C467.247 1137.75 418.946 1075.2 391.365 1003.8C356.351 913.159 318.884 810.133 370.08 727.544C426.25 636.929 537.539 596.666 644.148 596.01Z" fill="#6FAD0B" fill-opacity="0.3"/>
<path fill-rule="evenodd" clip-rule="evenodd" d="M851.312 -196.816C950.962 -204.207 1062.16 -204.709 1128.23 -129.746C1196.91 -51.8293 1205.74 66.461 1168.97 163.594C1136.82 248.513 1040.86 275.442 959.543 315.835C876.094 357.285 786.718 439.528 705.545 393.781C625.292 348.551 660.212 229.065 644.516 138.291C630.677 58.2575 578.864 -23.0434 621.518 -92.1632C668.022 -167.522 763.003 -190.266 851.312 -196.816Z" fill="#6FAD0B" fill-opacity="0.3"/>
</g>
<defs>
<clipPath id="clip0_33_4">
<path d="M0 25C0 11.1929 11.1929 0 25 0H910V1024H25C11.1929 1024 0 1012.81 0 999V25Z" fill="white"/>
</clipPath>
</defs>
</svg>
