<svg width="222" height="145" viewBox="0 0 222 145" fill="none" xmlns="http://www.w3.org/2000/svg">
<path d="M120.914 7.58285C117.005 7.8586 113.179 8.85022 109.628 10.5083L47.9543 39.304C40.1526 42.9467 34.1479 49.5797 31.2972 57.7042L21.1318 86.6748C12.5377 111.167 35.1454 135.163 60.1061 128.042L68.5047 125.646C73.1861 124.31 78.1106 124.06 82.9032 124.915L164.01 139.383C181.403 142.485 198.02 130.904 201.129 113.512L214.103 40.943C217.772 20.4191 201.149 1.92368 180.351 3.3906L120.914 7.58285Z" fill="#A6F22C"/>
<path d="M118.516 108.214C138.788 108.214 155.222 91.7801 155.222 71.5079C155.222 51.2355 138.788 34.8015 118.516 34.8015C98.2435 34.8015 81.8095 51.2355 81.8095 71.5079C81.8095 91.7801 98.2435 108.214 118.516 108.214Z" stroke="white" stroke-width="2.5" stroke-linecap="round" stroke-linejoin="round"/>
<path d="M122.21 55.2381C122.189 56.1995 121.79 57.1138 121.099 57.7825C120.408 58.4512 119.481 58.8201 118.519 58.8095C117.818 58.7861 117.14 58.557 116.569 58.1506C115.997 57.7443 115.558 57.1785 115.306 56.5243C115.054 55.87 115 55.1559 115.151 54.4711C115.302 53.7863 115.651 53.1614 116.155 52.6737C116.659 52.1861 117.295 51.8576 117.984 51.7291C118.673 51.6007 119.386 51.678 120.031 51.9515C120.677 52.2249 121.228 52.6824 121.615 53.2669C122.003 53.8513 122.209 54.537 122.21 55.2381ZM115.702 88.4923V67.1431C115.691 66.7681 115.756 66.3947 115.894 66.0459C116.031 65.6971 116.237 65.3796 116.501 65.113C116.764 64.8459 117.079 64.6348 117.425 64.4927C117.772 64.3506 118.144 64.28 118.519 64.2856C118.889 64.2852 119.255 64.3598 119.595 64.505C119.935 64.6499 120.243 64.8622 120.499 65.1292C120.755 65.3963 120.954 65.7122 121.084 66.0582C121.215 66.4042 121.273 66.7733 121.257 67.1431V88.4923C121.257 88.857 121.185 89.2181 121.046 89.555C120.906 89.8919 120.702 90.1983 120.444 90.4562C120.186 90.7141 119.88 90.9185 119.543 91.0582C119.206 91.1979 118.844 91.2697 118.48 91.2697C118.115 91.2697 117.754 91.1979 117.417 91.0582C117.08 90.9185 116.773 90.7141 116.515 90.4562C116.258 90.1983 116.053 89.8919 115.913 89.555C115.774 89.2181 115.702 88.857 115.702 88.4923Z" fill="white"/>
</svg>
